# xmcd
#
# Track frame offsets: 
#        150
#        23128
#        36665
#        51488
#        59135
#        72825
#        81333
#        89245
#        105440
#        116115
#        124330
#        135320
#        151095
#
# Disc length: 2181 seconds
#
# Revision: 2
# Processed by: cddbd v1.5.2PL0 Copyright (c) Steve Scherf et al.
# Submitted via: ExactAudioCopyFreeDBPlugin 1.0
#
DISCID=c008830d
DTITLE=Various Artist - The Soul of Christmas, Volume 1 [Malaco Recor
DTITLE=ds]
DYEAR=1900
DGENRE=Holiday
TTITLE0=Mahalia Jackson - Silent Night
TTITLE1=Jerry Butler - O Holy Night
TTITLE2=The Original Five Blind Boys - White Christmas
TTITLE3=The Caravans - God Rest Ye Merry Gentlemen
TTITLE4=Mahalia Jackson - Hark the Herald Angels Sing
TTITLE5=The Pattersons - Behold the Star
TTITLE6=Charles Taylor - Joy to the World
TTITLE7=Johnny Adams - The Christmas Song
TTITLE8=Patti LaBelle - Jingle Bells
TTITLE9=The Platters - Santa Claus is Coming to Town
TTITLE10=The Gospel Clefs - Mary's Boy Child
TTITLE11=Mahalia Jackson - Away in a Manger
TTITLE12=The Swan Silvertones - Go Tell it on the Mountain
EXTD=Malaco Records\nMCD 7470\n(c) 1993\n\n\nmdb\n
EXTT0=
EXTT1=
EXTT2=
EXTT3=
EXTT4=
EXTT5=
EXTT6=
EXTT7=
EXTT8=
EXTT9=
EXTT10=
EXTT11=
EXTT12=
PLAYORDER=
